<?xml version="1.0" ?>
<svg x="0" y="0" height="4200" width="4200" viewBox="0 0 4200 4200" xmlns="http://www.w3.org/2000/svg">
    <g transform="translate(-734.626 -734.646)">
        <path d="M4934.665,2834.714c0,747.9-390.956,1404.5-979.72,1776.465l-36.731-107.091c-7.269,4.749-14.641,9.5-22.005,14.15-24.418,15.408-49.035,30.334-74.04,44.483v.1c-10.856,6.2-21.806,12.309-32.756,18.222-6.985,3.875-13.866,7.655-20.841,11.338-12.3,6.59-24.712,12.987-37.12,19.286q-26.022,13.23-52.527,25.586-29.217,13.812-58.831,26.458c-9.786,4.265-19.667,8.334-29.652,12.4-9.881,4.071-19.866,8.141-29.851,12.018-9.1,3.586-18.219,7.074-27.428,10.466-1.259.582-2.612,1.067-3.871,1.551-9.6,3.489-19.288,7.076-28.98,10.467-10.079,3.587-20.254,7.074-30.437,10.467-8.036,2.811-16.185,5.428-24.324,8.044-4.94,1.648-9.985,3.295-15.02,4.75-5.717,1.841-11.433,3.585-17.15,5.33-3.492,1.065-7.079,2.131-10.571,3.2-8.329,2.52-16.762,4.943-25.1,7.269h-.095c-10.079,2.908-20.159,5.622-30.239,8.336-8.82,2.326-17.736,4.652-26.651,6.88-6.976,1.841-14.055,3.489-21.125,5.137-5.139,1.259-10.278,2.52-15.408,3.682q-32.568,7.56-65.617,13.956c-11.433,2.229-22.876,4.458-34.309,6.4-10.855,1.938-21.607,3.779-32.463,5.427-3.1.581-6.3,1.066-9.5,1.551q-10.761,1.745-21.513,3.2c-4.845.774-9.786,1.454-14.632,2.036-7.174,1.064-14.348,2.034-21.522,2.809-8.622,1.163-17.443,2.23-26.159,3.1-8.727,1.067-17.453,2.036-26.169,2.811-8.916.97-17.737,1.745-26.652,2.423-6.209.582-12.408,1.164-18.607,1.551-6.692.581-13.279.969-19.97,1.357-8.916.679-17.737,1.163-26.652,1.647-10.657.582-21.219,1.067-31.886,1.455-6.975.29-13.856.484-20.831.581-6.786.29-13.572.387-20.358.484-10.856.194-21.806.291-32.662.291-11.139,0-22.288-.1-33.333-.291-6.4-.1-12.7-.194-19.09-.484-5.821-.1-11.632-.194-17.349-.388-10.761-.387-21.616-.872-32.368-1.454-4.562-.194-9.019-.484-13.572-.775-8.622-.387-17.159-.969-25.781-1.648-9.1-.581-18.314-1.259-27.428-2.132-7.751-.582-15.6-1.26-23.453-2.132-4.846-.388-9.6-.873-14.442-1.454-6.588-.581-13.175-1.26-19.668-2.132-2.915-.194-5.82-.581-8.631-.969-9.692-1.067-19.383-2.325-28.98-3.587a5.7,5.7,0,0,1-1.354-.192c-10.657-1.454-21.323-2.908-31.98-4.556q-14.679-2.18-29.368-4.652c-3.975-.581-7.941-1.259-12.02-2.035-7.846-1.26-15.8-2.714-23.642-4.167-10.761-1.939-21.513-4.071-32.274-6.2s-21.512-4.457-32.273-6.783c-10.657-2.326-21.324-4.749-32.075-7.269-10.667-2.52-21.229-5.137-31.886-7.85-8.045-2.036-15.995-4.07-23.945-6.3-8.527-2.132-16.96-4.458-25.393-6.978-6.294-1.648-12.6-3.49-18.891-5.331-10.184-2.908-20.254-6.009-30.239-9.109-6.1-1.842-12.313-3.78-18.323-5.719-5.811-1.841-11.528-3.682-17.244-5.621-4.269-1.357-8.528-2.81-12.7-4.265q-9.738-3.2-19.477-6.686l-14.831-5.234c-5.329-1.841-10.657-3.779-15.891-5.815-5.139-1.842-10.174-3.683-15.219-5.621q-9.015-3.342-18.02-6.977c-5.622-2.132-11.244-4.265-16.771-6.494-2.224-.969-4.363-1.842-6.587-2.714-8.916-3.586-17.736-7.172-26.652-10.952-9.89-4.166-19.866-8.431-29.756-12.792-.871-.388-1.836-.775-2.811-1.26-9.209-4.071-18.408-8.239-27.617-12.405q-44.919-20.643-88.777-43.612c-9.786-5.04-19.477-10.274-29.169-15.507-9.209-5.04-18.418-10.176-27.627-15.312-.672-.388-1.258-.679-1.836-.97-9.114-5.234-18.124-10.467-27.134-15.7-.294-.193-.682-.387-.975-.581q-36.2-21.225-71.617-44.1-12.366-8-24.428-15.991l-35.179,108.255c-578.873-373.9-961.984-1024.788-961.984-1765.127,0-1064.62,792.192-1944.227,1819.3-2081.46a2128.167,2128.167,0,0,1,503-6.978C4112.235,857.246,4934.665,1749.935,4934.665,2834.714Z"
              fill="#f1c310"/>
        <path d="M4824.779,2834.676c0,678.119-338.334,1300.221-906.55,1669.374-7.269,4.748-14.632,9.5-22,14.149-24.427,15.41-49.044,30.336-74.049,44.485v.1c-10.847,6.2-21.806,12.309-32.757,18.219-6.975,3.878-13.856,7.657-20.831,11.341-12.313,6.59-24.721,12.985-37.12,19.284q-26.022,13.231-52.527,25.587-29.231,13.809-58.831,26.458c-9.786,4.263-19.677,8.335-29.652,12.405-9.89,4.07-19.875,8.142-29.851,12.018-9.114,3.587-18.219,7.074-27.428,10.467-1.259.582-2.621,1.065-3.88,1.55-9.6,3.49-19.289,7.075-28.98,10.468-10.08,3.584-20.254,7.074-30.428,10.465-8.045,2.811-16.185,5.428-24.324,8.045-4.94,1.647-9.985,3.3-15.02,4.749-5.726,1.843-11.443,3.587-17.159,5.33-3.492,1.065-7.07,2.132-10.562,3.2-8.339,2.518-16.771,4.941-25.1,7.269h-.095c-10.079,2.906-20.159,5.62-30.239,8.333-8.82,2.326-17.736,4.652-26.651,6.881-6.985,1.841-14.055,3.49-21.134,5.137-5.13,1.261-10.269,2.52-15.409,3.684q-32.566,7.56-65.607,13.955c-11.442,2.229-22.875,4.458-34.309,6.4-10.855,1.938-21.616,3.781-32.472,5.428-3.1.582-6.294,1.067-9.493,1.549q-10.761,1.748-21.512,3.2c-4.846.777-9.8,1.453-14.642,2.035-7.164,1.067-14.339,2.035-21.513,2.811-8.622,1.164-17.443,2.229-26.169,3.1-8.716,1.067-17.443,2.035-26.169,2.811-8.915.968-17.736,1.744-26.652,2.423-6.2.58-12.4,1.162-18.607,1.55-6.682.582-13.278.97-19.96,1.358-8.916.677-17.737,1.162-26.652,1.647-10.666.582-21.229,1.065-31.886,1.453-6.975.291-13.856.485-20.84.582-6.777.291-13.563.388-20.349.485-10.856.194-21.806.291-32.662.291-11.149,0-22.288-.1-33.343-.291-6.388-.1-12.692-.194-19.09-.485-5.811-.1-11.631-.194-17.348-.388-10.752-.388-21.607-.871-32.368-1.453-4.553-.194-9.01-.485-13.572-.776-8.622-.388-17.15-.97-25.772-1.647-9.114-.582-18.323-1.261-27.428-2.134-7.751-.58-15.607-1.259-23.453-2.13-4.845-.388-9.6-.873-14.442-1.455-6.588-.582-13.184-1.261-19.677-2.132-2.906-.194-5.811-.582-8.622-.97-9.692-1.065-19.383-2.326-28.98-3.585a5.7,5.7,0,0,1-1.354-.194c-10.666-1.455-21.323-2.908-31.989-4.554q-14.68-2.179-29.359-4.652c-3.975-.582-7.95-1.261-12.02-2.035-7.846-1.261-15.8-2.714-23.651-4.169-10.752-1.938-21.513-4.07-32.265-6.2s-21.522-4.457-32.273-6.783c-10.667-2.329-21.324-4.751-32.085-7.269-10.657-2.52-21.219-5.137-31.885-7.851-8.045-2.035-15.986-4.069-23.936-6.3-8.527-2.135-16.96-4.46-25.393-6.98-6.3-1.647-12.6-3.488-18.9-5.329-10.174-2.908-20.253-6.01-30.238-9.112-6.1-1.84-12.3-3.778-18.314-5.716-5.811-1.843-11.537-3.684-17.254-5.622-4.259-1.356-8.527-2.811-12.691-4.264q-9.739-3.2-19.478-6.689l-14.831-5.231c-5.329-1.843-10.666-3.781-15.891-5.816-5.139-1.841-10.184-3.684-15.219-5.62q-9.015-3.346-18.029-6.98c-5.622-2.131-11.244-4.263-16.762-6.492-2.233-.97-4.363-1.841-6.6-2.714-8.915-3.585-17.736-7.172-26.651-10.953-9.881-4.167-19.866-8.43-29.747-12.791-.871-.388-1.846-.776-2.811-1.259-9.209-4.072-18.418-8.239-27.627-12.408q-44.917-20.641-88.776-43.612c-9.786-5.04-19.478-10.271-29.169-15.5-9.209-5.04-18.409-10.176-27.618-15.313-.681-.386-1.258-.679-1.845-.968-9.1-5.234-18.125-10.468-27.135-15.7-.293-.194-.681-.388-.965-.582q-36.2-21.223-71.627-44.094-12.351-8-24.418-15.993c-556.1-370.8-887.262-987.959-887.262-1656.871A1987.854,1987.854,0,0,1,1341.528,1518.85c317.693-360.235,753.426-593.415,1226.959-656.7a2017.306,2017.306,0,0,1,477.017-6.59c485.838,51.075,935.048,279.6,1264.561,643.52C4642,1865.518,4824.779,2339.823,4824.779,2834.676Z"
              fill="#f1c310"/>
        <path d="M2114.334,3315.869l-21.323,65.515v.1c-31.592-10.759-57.856-21.709-79.567-32.856-26.359-13.47-23.065-52.236,5.044-61.637a33.289,33.289,0,0,1,10.562-1.648,32.74,32.74,0,0,1,13.856,3A657.717,657.717,0,0,0,2114.334,3315.869Z"/>
        <path d="M2114.334,3315.869l-21.323,65.515v.1c-31.592-10.759-57.856-21.709-79.567-32.856-26.359-13.47-23.065-52.236,5.044-61.637a33.289,33.289,0,0,1,10.562-1.648,32.74,32.74,0,0,1,13.856,3A657.717,657.717,0,0,0,2114.334,3315.869Z"/>
        <path d="M3513.2,3315.869l21.323,65.515v.1c31.593-10.759,57.857-21.709,79.568-32.856,26.358-13.47,23.065-52.236-5.045-61.637a33.288,33.288,0,0,0-10.562-1.648,32.743,32.743,0,0,0-13.856,3A657.638,657.638,0,0,1,3513.2,3315.869Z"/>
        <path d="M3513.2,3315.869l21.323,65.515v.1c31.593-10.759,57.857-21.709,79.568-32.856,26.358-13.47,23.065-52.236-5.045-61.637a33.288,33.288,0,0,0-10.562-1.648,32.743,32.743,0,0,0-13.856,3A657.638,657.638,0,0,1,3513.2,3315.869Z"/>
        <path d="M3530.951,3375.859v.1c-30.239,11.049-65.806,21.806-107.771,32.177-165.533,40.9-385.43,63.576-619.1,63.576-233.762,0-453.658-22.678-619.286-63.576-34.7-8.724-65.134-17.543-91.786-26.652v-.1l21.323-65.515c24.324,8.043,52.235,15.99,84.12,23.744,162.533,39.348,377.584,61.251,605.629,61.251,227.951,0,443-21.9,605.534-61.251,38.568-9.4,71.23-19,99.046-28.687Z"/>
        <path d="M3530.951,3375.859v.1c-30.239,11.049-65.806,21.806-107.771,32.177-165.533,40.9-385.43,63.576-619.1,63.576-233.762,0-453.658-22.678-619.286-63.576-34.7-8.724-65.134-17.543-91.786-26.652v-.1l21.323-65.515c24.324,8.043,52.235,15.99,84.12,23.744,162.533,39.348,377.584,61.251,605.629,61.251,227.951,0,443-21.9,605.534-61.251,38.568-9.4,71.23-19,99.046-28.687Z"/>
        <path d="M3069.914,2178.675a950.008,950.008,0,0,0-222.05-36.221c-14.511-.675-29.248-1.012-43.869-1.012a960.468,960.468,0,0,0-265.814,37.233c18.784-88.414,130.713-156.357,265.814-156.357C2939.2,2022.318,3051.019,2090.261,3069.914,2178.675Z"/>
        <path d="M3069.914,2178.675a950.008,950.008,0,0,0-222.05-36.221c-14.511-.675-29.248-1.012-43.869-1.012a960.468,960.468,0,0,0-265.814,37.233c18.784-88.414,130.713-156.357,265.814-156.357C2939.2,2022.318,3051.019,2090.261,3069.914,2178.675Z"/>
        <path d="M3954.96,4611.142c-324.185,204.976-708.356,323.5-1120.248,323.5-419.454,0-810.212-122.986-1138.078-334.842l35.179-108.257q12.068,8,24.418,15.993,35.478,22.821,71.627,44.094c.284.194.672.388.965.582,9.01,5.234,18.03,10.468,27.135,15.7.587.289,1.164.582,1.845.968,9.209,5.137,18.409,10.273,27.618,15.313,9.691,5.234,19.383,10.465,29.169,15.5q43.91,22.971,88.776,43.612c9.209,4.169,18.418,8.336,27.627,12.408.965.483,1.94.871,2.811,1.259,9.881,4.361,19.866,8.624,29.747,12.791,8.915,3.781,17.736,7.368,26.651,10.953,2.234.873,4.364,1.744,6.6,2.714,5.518,2.229,11.14,4.361,16.762,6.492q9.015,3.634,18.029,6.98c5.035,1.936,10.08,3.779,15.219,5.62,5.225,2.035,10.562,3.973,15.891,5.816l14.831,5.231q9.738,3.494,19.478,6.689c4.164,1.453,8.432,2.908,12.691,4.264,5.717,1.938,11.443,3.779,17.254,5.622,6.01,1.938,12.209,3.876,18.314,5.716,9.985,3.1,20.064,6.2,30.238,9.112,6.3,1.841,12.6,3.682,18.9,5.329,8.433,2.52,16.866,4.845,25.393,6.98,7.95,2.229,15.891,4.263,23.936,6.3,10.666,2.714,21.228,5.331,31.885,7.851,10.761,2.518,21.418,4.94,32.085,7.269,10.751,2.326,21.512,4.651,32.273,6.783s21.513,4.264,32.265,6.2c7.855,1.455,15.805,2.908,23.651,4.169,4.07.774,8.045,1.453,12.02,2.035q14.679,2.47,29.359,4.652c10.666,1.646,21.323,3.1,31.989,4.554a5.7,5.7,0,0,0,1.354.194c9.6,1.259,19.288,2.52,28.98,3.585,2.811.388,5.716.776,8.622.97,6.493.871,13.089,1.55,19.677,2.132,4.845.582,9.6,1.067,14.442,1.455,7.846.871,15.7,1.55,23.453,2.13,9.1.873,18.314,1.552,27.428,2.134,8.622.677,17.15,1.259,25.772,1.647,4.562.291,9.019.582,13.572.776,10.761.582,21.616,1.065,32.368,1.453,5.717.194,11.537.291,17.348.388,6.4.291,12.7.388,19.09.485,11.055.194,22.194.291,33.343.291,10.856,0,21.806-.1,32.662-.291,6.786-.1,13.572-.194,20.349-.485,6.984-.1,13.865-.291,20.84-.582,10.657-.388,21.22-.871,31.886-1.453,8.915-.485,17.736-.97,26.652-1.647,6.682-.388,13.278-.776,19.96-1.358,6.209-.388,12.408-.97,18.607-1.55,8.916-.679,17.737-1.455,26.652-2.423,8.726-.776,17.453-1.744,26.169-2.811,8.726-.873,17.547-1.938,26.169-3.1,7.174-.776,14.349-1.744,21.513-2.811,4.846-.582,9.8-1.258,14.642-2.035q10.746-1.455,21.512-3.2c3.2-.482,6.4-.967,9.493-1.549,10.856-1.647,21.617-3.49,32.472-5.428,11.434-1.938,22.867-4.167,34.309-6.4q32.992-6.4,65.607-13.955c5.14-1.164,10.279-2.423,15.409-3.684,7.079-1.647,14.149-3.3,21.134-5.137,8.915-2.229,17.831-4.555,26.651-6.881,10.08-2.713,20.16-5.427,30.239-8.333h.095c8.329-2.328,16.761-4.751,25.1-7.269,3.492-1.067,7.07-2.134,10.562-3.2,5.716-1.743,11.433-3.487,17.159-5.33,5.035-1.453,10.08-3.1,15.02-4.749,8.139-2.617,16.279-5.234,24.324-8.045,10.174-3.391,20.348-6.881,30.428-10.465,9.691-3.393,19.383-6.978,28.98-10.468,1.259-.485,2.621-.968,3.88-1.55,9.209-3.393,18.314-6.88,27.428-10.467,9.976-3.876,19.961-7.948,29.851-12.018,9.975-4.07,19.866-8.142,29.652-12.405q29.656-12.65,58.831-26.458,26.448-12.358,52.527-25.587c12.4-6.3,24.807-12.694,37.12-19.284,6.975-3.684,13.856-7.463,20.831-11.341,10.951-5.91,21.91-12.017,32.757-18.219v-.1c25-14.149,49.622-29.075,74.049-44.485,7.364-4.652,14.727-9.4,22-14.149Z"
              fill="#f1c310"/>
        <g>
            <path d="M3916.679,4207.806c-2.229,1.453-4.553,3-6.786,4.458-7.269,4.749-14.632,9.5-22,14.149-6.009,3.781-12.114,7.56-18.124,11.341-.1.1-.1.1-.194.1q-27.62,17.153-55.727,33.047v.1c-10.855,6.2-21.806,12.309-32.756,18.219-6.98,3.879-13.861,7.657-20.836,11.341q-18.469,9.885-37.119,19.286-26.024,13.229-52.528,25.585-29.223,13.811-58.831,26.458c-9.786,4.266-19.672,8.336-29.657,12.405-9.885,4.07-19.865,8.142-29.85,12.018-9.11,3.587-18.219,7.075-27.424,10.468-1.263.582-2.621,1.067-3.88,1.549-9.592,3.49-19.284,7.075-28.975,10.468-10.08,3.587-20.259,7.075-30.433,10.468-8.045,2.811-16.184,5.427-24.324,8.042-4.945,1.649-9.985,3.3-15.025,4.749-5.716,1.841-11.437,3.587-17.154,5.331-3.488,1.067-7.075,2.132-10.562,3.2-8.334,2.52-16.766,4.942-25.1,7.268h-.1c-10.08,2.908-20.159,5.62-30.239,8.336-8.816,2.324-17.732,4.652-26.652,6.881-6.975,1.841-14.05,3.487-21.125,5.134-5.139,1.261-10.273,2.522-15.412,3.684q-32.561,7.56-65.608,13.956c-11.438,2.228-22.875,4.457-34.308,6.4-10.856,1.94-21.617,3.781-32.468,5.428-3.1.582-6.3,1.067-9.5,1.552q-10.761,1.743-21.517,3.2c-4.846.776-9.786,1.455-14.632,2.037-7.174,1.065-14.343,2.035-21.517,2.809-8.627,1.164-17.443,2.231-26.17,3.1-8.721,1.064-17.442,2.034-26.164,2.81-8.915.971-17.736,1.744-26.652,2.423-6.2.582-12.4,1.164-18.607,1.55-6.686.582-13.278.97-19.965,1.358-8.916.679-17.736,1.162-26.652,1.647-10.662.582-21.224,1.067-31.886,1.455-6.98.289-13.86.483-20.835.58-6.786.291-13.568.388-20.354.485-10.855.194-21.806.291-32.661.291-11.145,0-22.289-.1-33.339-.291-6.4-.1-12.7-.194-19.094-.485-5.812-.1-11.627-.194-17.349-.388-10.756-.386-21.607-.871-32.368-1.453-4.552-.194-9.01-.485-13.567-.776-8.627-.386-17.155-.968-25.781-1.647-9.11-.582-18.314-1.261-27.424-2.132-7.756-.582-15.606-1.261-23.457-2.132-4.846-.388-9.592-.873-14.438-1.455-6.592-.582-13.184-1.258-19.677-2.132-2.905-.194-5.811-.579-8.622-.967-9.691-1.067-19.383-2.329-28.98-3.587a5.651,5.651,0,0,1-1.353-.194c-10.662-1.453-21.324-2.908-31.985-4.555q-14.687-2.183-29.364-4.652c-3.975-.582-7.95-1.261-12.02-2.035-7.85-1.261-15.8-2.714-23.646-4.166-10.757-1.941-21.518-4.072-32.274-6.2s-21.518-4.458-32.274-6.784c-10.662-2.326-21.319-4.749-32.08-7.269-10.657-2.52-21.224-5.136-31.885-7.85-8.04-2.035-15.99-4.07-23.936-6.3-8.527-2.132-16.96-4.46-25.393-6.978-6.3-1.649-12.6-3.49-18.9-5.33-10.175-2.908-20.254-6.01-30.234-9.112-6.11-1.841-12.309-3.779-18.319-5.717-5.816-1.841-11.532-3.682-17.249-5.622-4.263-1.356-8.532-2.811-12.7-4.263q-9.74-3.2-19.483-6.687l-14.826-5.234c-5.328-1.841-10.662-3.781-15.9-5.816-5.135-1.841-10.175-3.681-15.214-5.622q-9.015-3.344-18.03-6.975c-5.617-2.134-11.239-4.266-16.762-6.5-2.233-.968-4.363-1.841-6.592-2.714-8.915-3.584-17.736-7.172-26.651-10.95-9.886-4.169-19.871-8.433-29.752-12.794-.875-.388-1.845-.773-2.811-1.261-9.209-4.07-18.418-8.236-27.622-12.4q-44.925-20.642-88.776-43.612c-9.791-5.04-19.483-10.274-29.174-15.508-9.2-5.039-18.413-10.176-27.617-15.313-.682-.388-1.259-.677-1.841-.968-9.11-5.234-18.125-10.467-27.14-15.7-.288-.192-.676-.386-.965-.58q-36.2-21.223-71.622-44.1c-3.488-2.229-6.881-4.46-10.274-6.689-1.452-.968-2.811-1.841-4.263-2.809l36.731-85.674c16.378,10.177,32.851,20.256,49.428,29.948.289.191.677.385.965.58,9.015,5.233,18.03,10.467,27.14,15.7.582.291,1.159.582,1.841.97,9.2,5.135,18.413,10.271,27.617,15.311,9.691,5.234,19.383,10.468,29.174,15.508q43.9,22.967,88.776,43.612c9.2,4.166,18.413,8.336,27.622,12.405.966.483,1.936.871,2.811,1.259,9.881,4.363,19.866,8.627,29.752,12.794,8.915,3.778,17.736,7.365,26.651,10.952,2.229.871,4.359,1.744,6.592,2.712,5.523,2.229,11.145,4.363,16.762,6.492q9.015,3.634,18.03,6.98c5.039,1.938,10.079,3.779,15.214,5.622,5.233,2.035,10.567,3.973,15.9,5.814l14.826,5.234q9.747,3.489,19.483,6.686c4.164,1.455,8.433,2.908,12.7,4.264,5.717,1.938,11.433,3.781,17.249,5.622,6.01,1.938,12.209,3.878,18.319,5.719,9.98,3.1,20.059,6.2,30.234,9.109,6.3,1.841,12.6,3.682,18.9,5.331,8.433,2.52,16.866,4.846,25.393,6.978,7.946,2.229,15.9,4.264,23.936,6.3,10.661,2.714,21.228,5.331,31.885,7.851,10.761,2.52,21.418,4.943,32.08,7.269,10.756,2.326,21.517,4.652,32.274,6.783s21.517,4.267,32.274,6.2c7.85,1.455,15.8,2.91,23.646,4.169,4.07.776,8.045,1.453,12.02,2.035q14.679,2.47,29.364,4.652c10.661,1.646,21.323,3.1,31.985,4.554a5.652,5.652,0,0,0,1.353.194c9.6,1.262,19.289,2.52,28.98,3.587,2.811.386,5.717.774,8.622.968,6.493.873,13.085,1.552,19.677,2.134,4.846.58,9.592,1.065,14.438,1.453,7.851.871,15.7,1.55,23.457,2.132,9.11.873,18.314,1.55,27.424,2.132,8.626.679,17.154,1.259,25.781,1.647,4.557.291,9.015.582,13.567.776,10.761.582,21.612,1.065,32.368,1.453,5.722.194,11.537.291,17.349.388,6.4.291,12.7.388,19.094.485,11.05.194,22.194.291,33.339.291,10.855,0,21.806-.1,32.661-.291,6.786-.1,13.568-.194,20.354-.485,6.975-.1,13.855-.289,20.835-.582,10.662-.386,21.224-.871,31.886-1.453,8.916-.485,17.736-.97,26.652-1.647,6.687-.388,13.279-.776,19.965-1.358,6.2-.388,12.4-.968,18.607-1.55,8.916-.679,17.737-1.455,26.652-2.423,8.722-.776,17.443-1.744,26.164-2.811,8.727-.873,17.543-1.938,26.17-3.1,7.174-.773,14.343-1.744,21.517-2.811,4.846-.579,9.786-1.258,14.632-2.035q10.761-1.45,21.517-3.2c3.2-.485,6.394-.97,9.5-1.55,10.851-1.649,21.612-3.49,32.468-5.428,11.433-1.94,22.87-4.169,34.308-6.4q32.994-6.395,65.608-13.955c5.139-1.164,10.273-2.423,15.412-3.682,7.075-1.649,14.15-3.3,21.125-5.137,8.92-2.231,17.836-4.554,26.652-6.883,10.08-2.711,20.159-5.425,30.239-8.333h.1c8.334-2.326,16.766-4.749,25.1-7.269,3.487-1.064,7.074-2.131,10.562-3.2,5.717-1.743,11.438-3.487,17.154-5.328,5.04-1.455,10.08-3.1,15.025-4.751,8.14-2.617,16.279-5.234,24.324-8.043,10.174-3.393,20.353-6.883,30.433-10.467,9.691-3.391,19.383-6.978,28.975-10.466,1.259-.487,2.617-.97,3.88-1.552,9.2-3.393,18.314-6.88,27.424-10.467,9.985-3.876,19.965-7.946,29.85-12.018,9.985-4.07,19.871-8.139,29.657-12.4q29.656-12.647,58.831-26.458,26.455-12.355,52.528-25.585c12.4-6.3,24.806-12.7,37.119-19.286,6.975-3.682,13.856-7.463,20.836-11.338,10.95-5.913,21.9-12.02,32.756-18.222v-.1q28.061-15.843,55.727-33.047c.095,0,.095,0,.194-.1,2.811-1.746,5.717-3.587,8.528-5.331Z"
                  fill="#fff"/>
            <path d="M3830.137,4017.076c-5.428,3.2-10.855,6.3-16.283,9.4v.1c-10.856,6.2-21.806,12.308-32.757,18.219-6.98,3.878-13.86,7.657-20.836,11.341-12.313,6.589-24.716,12.985-37.119,19.286q-26.022,13.227-52.528,25.584-29.223,13.811-58.831,26.458c-9.786,4.264-19.671,8.336-29.656,12.406-9.886,4.072-19.866,8.142-29.851,12.017-9.11,3.587-18.219,7.075-27.423,10.468-1.264.582-2.622,1.065-3.881,1.55-9.592,3.49-19.284,7.074-28.975,10.467-10.08,3.585-20.259,7.075-30.433,10.466-8.045,2.811-16.184,5.427-24.324,8.044-4.945,1.647-9.985,3.3-15.024,4.749-5.717,1.843-11.438,3.587-17.155,5.331-3.487,1.065-7.074,2.132-10.562,3.2-8.333,2.52-16.766,4.943-25.1,7.269h-.1c-10.08,2.9-20.159,5.622-30.239,8.333-8.816,2.326-17.731,4.652-26.652,6.881-6.975,1.843-14.05,3.49-21.124,5.137-5.139,1.261-10.274,2.519-15.413,3.684q-32.561,7.559-65.608,13.955c-11.437,2.229-22.875,4.458-34.308,6.4-10.856,1.935-21.617,3.779-32.468,5.425-3.1.582-6.3,1.067-9.5,1.55q-10.761,1.746-21.518,3.2c-4.846.776-9.786,1.453-14.632,2.035-7.174,1.067-14.343,2.035-21.517,2.811-8.627,1.164-17.443,2.229-26.169,3.1-8.722,1.067-17.443,2.035-26.165,2.811-8.915.968-17.736,1.744-26.652,2.423-6.2.579-12.4,1.161-18.607,1.549-6.686.583-13.278.971-19.965,1.359-8.915.676-17.736,1.161-26.652,1.646-10.661.583-21.224,1.065-31.885,1.453-6.98.291-13.861.485-20.836.582-6.786.291-13.568.388-20.354.485-10.855.194-21.806.291-32.661.291-11.145,0-22.289-.1-33.339-.291-6.4-.1-12.7-.194-19.094-.485-5.811-.1-11.627-.194-17.349-.388-10.756-.388-21.607-.87-32.368-1.453-4.552-.194-9.01-.485-13.567-.776-8.627-.388-17.154-.97-25.781-1.646-9.11-.582-18.314-1.262-27.423-2.132-7.757-.582-15.607-1.261-23.458-2.132-4.846-.388-9.592-.873-14.438-1.455-6.592-.58-13.184-1.259-19.677-2.132-2.905-.194-5.811-.582-8.622-.97-9.691-1.065-19.383-2.324-28.98-3.585a5.659,5.659,0,0,1-1.353-.194c-10.662-1.455-21.323-2.908-31.985-4.555q-14.687-2.177-29.364-4.651c-3.975-.583-7.95-1.262-12.019-2.035-7.851-1.261-15.8-2.714-23.647-4.169-10.757-1.938-21.518-4.07-32.274-6.2s-21.517-4.458-32.274-6.784c-10.661-2.325-21.318-4.748-32.079-7.268-10.657-2.52-21.224-5.137-31.886-7.851-8.04-2.035-15.99-4.07-23.936-6.3-8.527-2.134-16.96-4.457-25.393-6.98-6.3-1.646-12.6-3.487-18.9-5.328-10.174-2.908-20.254-6.01-30.234-9.11-6.109-1.843-12.309-3.781-18.319-5.718-5.816-1.844-11.532-3.685-17.249-5.622-4.263-1.356-8.532-2.811-12.7-4.264q-9.74-3.2-19.483-6.689l-14.826-5.232c-5.328-1.843-10.661-3.781-15.9-5.815-5.135-1.841-10.174-3.682-15.214-5.62q-9.015-3.344-18.03-6.98c-5.617-2.132-11.239-4.264-16.761-6.493-2.234-.97-4.364-1.84-6.592-2.713-8.916-3.585-17.737-7.172-26.652-10.951-9.886-4.167-19.871-8.433-29.752-12.793-.875-.388-1.845-.776-2.811-1.259-9.209-4.072-18.417-8.239-27.622-12.408q-44.925-20.641-88.776-43.612c-9.791-5.038-19.482-10.271-29.174-15.505-9.2-5.04-18.413-10.177-27.617-15.314-.682-.385-1.259-.679-1.841-.967-9.11-5.234-18.124-10.468-27.139-15.7-.289-.194-.677-.388-.966-.582-1.164-.677-2.233-1.356-3.393-2.035l278.146-648.656v-.1l21.323-49.523v-.1l40.995-95.364,44.483-103.314a5122.754,5122.754,0,0,1,1220.363,0q21.323,47.005,42.642,94.011l45.845,100.888v.1l22.289,49.137v.1Z"
                  fill="#fff"/>
        </g>
        <path d="M3066.767,3181.4c-25.986,82.452-133.751,144.321-262.772,144.321-126.105,0-232.068-59.168-260.866-139.034a2877.119,2877.119,0,0,1,291.35-14.512C2912.88,3172.174,2990.5,3175.212,3066.767,3181.4Z"/>
        <path d="M3066.767,3181.4c-25.986,82.452-133.751,144.321-262.772,144.321-126.105,0-232.068-59.168-260.866-139.034a2877.119,2877.119,0,0,1,291.35-14.512C2912.88,3172.174,2990.5,3175.212,3066.767,3181.4Z"/>
        <path d="M3056.921,746.277c-29.95,78.793-99.727,139.559-186.468,160.3a277.539,277.539,0,0,1-66.483,7.947,273.277,273.277,0,0,1-44-3.489c-94.2-14.634-172.025-75.788-206.04-157.778a2128.211,2128.211,0,0,1,502.992-6.979Z"/>
        <path d="M2834.443,3108.428c319.961,0,616.94,50.4,862.536,136.508a912.457,912.457,0,0,0,8.555-192.737c-28.038-458.271-401.8-825.786-860.475-846.085-517.5-22.9-944.254,389.871-944.254,902.314a907.657,907.657,0,0,0,13.974,157.522C2170.794,3167.067,2489.255,3108.428,2834.443,3108.428Z"
              fill="red"/>
        <path d="M2010.7,3108.429c0-437.446,355.882-793.328,793.337-793.328,11.982,0,24.153.265,36.173.795,194.674,8.613,379.173,89.363,519.531,227.374s224.212,321.137,236.119,515.641q1.206,19.748,1.448,39.523c-233.658-65.56-494.451-99.9-762.862-99.9-293.463,0-575.182,40.5-823.708,117.8Q2010.692,3112.379,2010.7,3108.429Z"
              fill="red"/>
        <path d="M2834.443,3108.428c319.961,0,616.94,50.4,862.536,136.508a912.457,912.457,0,0,0,8.555-192.737c-28.038-458.271-401.8-825.786-860.475-846.085-517.5-22.9-944.254,389.871-944.254,902.314a907.657,907.657,0,0,0,13.974,157.522C2170.794,3167.067,2489.255,3108.428,2834.443,3108.428Z"/>
        <path d="M2010.7,3108.429c0-437.446,355.882-793.328,793.337-793.328,11.982,0,24.153.265,36.173.795,194.674,8.613,379.173,89.363,519.531,227.374s224.212,321.137,236.119,515.641q1.206,19.748,1.448,39.523c-233.658-65.56-494.451-99.9-762.862-99.9-293.463,0-575.182,40.5-823.708,117.8Q2010.692,3112.379,2010.7,3108.429Z"/>
        <path d="M2803.988,1539.458h0c24.087,0,43.613,16.4,43.613,36.623v379.087c0,20.226-19.526,36.622-43.613,36.622h0c-24.086,0-43.612-16.4-43.612-36.622V1576.081C2760.376,1555.855,2779.9,1539.458,2803.988,1539.458Z"/>
        <path d="M2803.988,774.3h0c24.087,0,43.613,38.666,43.613,86.363v893.949c0,47.7-19.526,86.362-43.613,86.362h0c-24.086,0-43.612-38.666-43.612-86.362V860.667C2760.376,812.97,2779.9,774.3,2803.988,774.3Z"/>
    </g>
</svg>