<svg xmlns="http://www.w3.org/2000/svg" width="64.994" height="64.993" viewBox="0 0 64.994 64.993">
    <g transform="translate(-734.635 -734.637)">
        <path d="M799.629,767.135a32.469,32.469,0,0,1-15.161,27.49l-.569-1.657c-.112.073-.226.147-.34.219-.378.238-.759.469-1.146.688v0c-.168.1-.338.191-.507.282-.108.06-.215.118-.322.175-.19.1-.382.2-.574.3q-.4.2-.813.4-.452.214-.91.409c-.152.066-.3.129-.459.192s-.307.126-.462.186-.282.109-.424.162c-.019.009-.04.016-.06.024-.149.054-.3.11-.448.162s-.313.109-.471.162c-.124.043-.25.084-.376.125-.076.025-.155.051-.232.073l-.265.082-.164.049c-.129.039-.259.077-.388.112h0c-.156.045-.312.087-.468.129-.137.036-.274.072-.412.106-.108.029-.218.054-.327.08l-.238.057q-.5.117-1.015.216c-.177.035-.354.069-.531.1s-.334.059-.5.084c-.048.009-.1.016-.147.024q-.166.027-.333.05c-.075.012-.151.022-.226.032-.111.016-.222.031-.333.043-.133.018-.27.035-.4.048s-.27.031-.4.043-.275.027-.413.038c-.1.009-.192.018-.288.024s-.205.015-.309.021c-.138.011-.274.018-.412.026-.165.009-.328.016-.493.022-.108,0-.214.008-.322.009s-.21.006-.315.007c-.168,0-.337,0-.505,0s-.345,0-.516,0c-.1,0-.2,0-.3-.007s-.18,0-.269-.006c-.166-.006-.334-.013-.5-.022-.071,0-.14-.008-.21-.012-.133-.006-.265-.015-.4-.026s-.283-.02-.424-.033c-.12-.009-.242-.02-.363-.033-.075-.006-.148-.013-.223-.023-.1-.009-.2-.019-.3-.033-.045,0-.09-.009-.134-.015-.15-.017-.3-.036-.448-.055l-.021,0c-.165-.023-.33-.045-.5-.071s-.3-.046-.454-.072c-.061-.009-.123-.02-.186-.031-.121-.02-.245-.042-.366-.064-.166-.03-.333-.063-.5-.1s-.333-.069-.5-.1-.33-.074-.5-.113-.329-.079-.494-.122c-.124-.031-.247-.063-.37-.1s-.263-.069-.393-.108c-.1-.025-.2-.054-.292-.082-.158-.045-.313-.093-.468-.141l-.284-.089c-.09-.028-.178-.057-.267-.087-.066-.021-.132-.044-.2-.066q-.151-.05-.3-.1l-.23-.081c-.082-.029-.165-.058-.246-.09l-.235-.087q-.14-.052-.279-.108c-.087-.033-.174-.066-.26-.1l-.1-.042c-.138-.056-.274-.111-.413-.17-.153-.064-.307-.13-.46-.2l-.043-.02-.427-.192q-.695-.32-1.374-.675c-.151-.078-.3-.159-.451-.24l-.427-.237-.028-.015-.42-.243-.015-.009q-.56-.328-1.108-.682-.191-.124-.378-.248l-.544,1.675a32.5,32.5,0,0,1,13.267-59.524,32.931,32.931,0,0,1,7.784-.108A32.5,32.5,0,0,1,799.629,767.135Z"
              transform="translate(0 0)" fill="#f1c310"/>
        <path d="M906.138,875.309a30.656,30.656,0,0,1-14.028,25.833c-.113.073-.227.147-.341.219-.378.239-.759.469-1.146.688v0c-.168.1-.338.191-.507.282-.108.06-.214.119-.322.176-.191.1-.383.2-.574.3q-.4.2-.813.4-.452.214-.91.409c-.151.066-.3.129-.459.192s-.307.126-.462.186-.282.109-.424.162c-.019.009-.041.017-.06.024-.148.054-.3.109-.448.162s-.313.109-.471.162c-.125.044-.25.084-.376.125-.076.025-.155.051-.232.073l-.266.083-.163.049c-.129.039-.259.076-.388.113h0c-.156.045-.312.087-.468.129-.136.036-.274.072-.412.107-.108.028-.218.054-.327.079-.079.02-.159.039-.238.057q-.5.117-1.015.216c-.177.034-.354.069-.531.1s-.335.059-.5.084c-.048.009-.1.017-.147.024q-.167.027-.333.049c-.075.012-.152.022-.227.032-.111.016-.222.031-.333.043-.133.018-.27.034-.4.048s-.27.031-.405.044-.274.027-.412.037c-.1.009-.192.018-.288.024s-.205.015-.309.021c-.138.01-.275.018-.412.025-.165.009-.328.017-.493.022-.108,0-.214.008-.322.009s-.21.006-.315.008c-.168,0-.338,0-.505,0s-.345,0-.516,0c-.1,0-.2,0-.3-.008l-.268-.006c-.167-.006-.334-.014-.5-.023l-.21-.012c-.133-.006-.266-.015-.4-.026s-.284-.02-.424-.033c-.12-.009-.242-.02-.363-.033-.075-.006-.149-.014-.223-.023-.1-.009-.2-.019-.3-.033-.045,0-.09-.009-.133-.015-.15-.016-.3-.036-.449-.055l-.021,0c-.165-.023-.33-.045-.5-.071s-.3-.046-.454-.072c-.062-.009-.123-.02-.186-.032-.121-.02-.245-.042-.366-.065-.166-.03-.333-.063-.5-.1s-.333-.069-.5-.1-.33-.074-.5-.112-.328-.079-.493-.122c-.125-.031-.247-.063-.37-.1s-.263-.069-.393-.108c-.1-.026-.195-.054-.293-.083-.157-.045-.313-.093-.468-.141l-.283-.089c-.09-.029-.179-.057-.267-.087-.066-.021-.132-.043-.2-.066q-.151-.05-.3-.1l-.229-.081c-.082-.029-.165-.059-.246-.09s-.158-.057-.235-.087q-.139-.052-.279-.108c-.087-.033-.174-.066-.26-.1l-.1-.042c-.138-.055-.274-.111-.412-.169-.153-.065-.307-.13-.46-.2l-.044-.02c-.142-.063-.285-.127-.427-.192q-.7-.319-1.374-.675c-.151-.078-.3-.159-.451-.24s-.285-.157-.427-.237l-.029-.015-.42-.243-.015-.009q-.56-.328-1.108-.682l-.378-.248a30.8,30.8,0,0,1,12.947-56.164,31.214,31.214,0,0,1,7.382-.1,30.8,30.8,0,0,1,27.534,30.626Z"
              transform="translate(-108.21 -108.174)" fill="#f1c310"/>
        <path d="M1997.258,3285.816l-.33,1.014h0a9.218,9.218,0,0,1-1.231-.509.518.518,0,0,1,.242-.979.5.5,0,0,1,.214.046A10.1,10.1,0,0,0,1997.258,3285.816Z"
              transform="translate(-1241.272 -2511.235)"/>
        <path d="M1997.258,3285.816l-.33,1.014h0a9.218,9.218,0,0,1-1.231-.509.518.518,0,0,1,.242-.979.5.5,0,0,1,.214.046A10.1,10.1,0,0,0,1997.258,3285.816Z"
              transform="translate(-1241.272 -2511.235)"/>
        <path d="M3513.2,3285.816l.33,1.014h0a9.213,9.213,0,0,0,1.231-.509.518.518,0,0,0-.242-.979.5.5,0,0,0-.214.046A10.148,10.148,0,0,1,3513.2,3285.816Z"
              transform="translate(-2735.568 -2511.235)"/>
        <path d="M3513.2,3285.816l.33,1.014h0a9.213,9.213,0,0,0,1.231-.509.518.518,0,0,0-.242-.979.5.5,0,0,0-.214.046A10.148,10.148,0,0,1,3513.2,3285.816Z"
              transform="translate(-2735.568 -2511.235)"/>
        <path d="M2115.259,3311.932v0a16.384,16.384,0,0,1-1.667.5,47.161,47.161,0,0,1-19.164,0c-.537-.135-1.008-.272-1.42-.413h0l.33-1.014c.377.125.808.247,1.3.368a46.826,46.826,0,0,0,18.742,0c.6-.146,1.1-.294,1.533-.444Z"
              transform="translate(-1337.353 -2536.423)"/>
        <path d="M2115.259,3311.932v0a16.384,16.384,0,0,1-1.667.5,47.161,47.161,0,0,1-19.164,0c-.537-.135-1.008-.272-1.42-.413h0l.33-1.014c.377.125.808.247,1.3.368a46.826,46.826,0,0,0,18.742,0c.6-.146,1.1-.294,1.533-.444Z"
              transform="translate(-1337.353 -2536.423)"/>
        <path d="M2546.405,2024.743a14.681,14.681,0,0,0-3.436-.561c-.224-.01-.453-.016-.679-.016a14.854,14.854,0,0,0-4.114.576c.291-1.368,2.023-2.42,4.114-2.42S2546.113,2023.374,2546.405,2024.743Z"
              transform="translate(-1775.633 -1267.759)"/>
        <path d="M2546.405,2024.743a14.681,14.681,0,0,0-3.436-.561c-.224-.01-.453-.016-.679-.016a14.854,14.854,0,0,0-4.114.576c.291-1.368,2.023-2.42,4.114-2.42S2546.113,2023.374,2546.405,2024.743Z"
              transform="translate(-1775.633 -1267.759)"/>
        <path d="M1731.577,4493.392a32.516,32.516,0,0,1-34.947-.176l.544-1.674c.125.083.25.165.378.248q.549.353,1.108.682l.015.009.419.243.029.016.427.236c.15.081.3.162.451.24q.679.356,1.374.675c.142.064.285.129.427.191.015.008.03.014.044.02.153.067.307.134.46.2s.274.113.412.169l.1.042c.085.035.172.067.259.1s.186.073.279.108c.078.03.156.059.236.087s.163.062.246.09l.23.081q.151.053.3.1c.064.022.13.045.2.066.089.03.177.059.267.087s.189.061.283.088c.155.048.31.1.468.141.1.029.2.057.293.083.13.04.261.075.393.108s.246.066.37.1c.165.043.329.083.493.122s.332.077.5.113.333.072.5.105.333.065.5.1c.122.022.244.044.366.064.063.011.125.022.186.031q.227.038.454.072c.165.025.33.048.495.071l.021,0c.149.019.3.038.449.055.043.006.088.012.134.015.1.014.2.024.3.033.075.009.148.017.223.022.121.014.243.024.363.033.141.014.283.024.424.033s.265.02.4.026l.21.011c.166.009.334.017.5.023.088,0,.178,0,.268.005s.2.006.3.008c.171,0,.344,0,.516,0s.338,0,.505,0c.1,0,.21,0,.315-.008s.215,0,.323-.009c.165-.005.328-.013.493-.022.138-.007.274-.014.412-.025.1-.006.205-.012.309-.021s.192-.015.288-.024c.138-.01.274-.022.412-.037s.27-.027.405-.043.271-.03.405-.048c.111-.012.222-.026.333-.043.075-.009.152-.02.227-.032q.166-.023.333-.049c.049-.008.1-.015.147-.024.168-.026.334-.055.5-.084s.354-.064.531-.1q.51-.1,1.015-.216c.079-.018.159-.037.238-.057.11-.026.219-.051.327-.08.138-.035.276-.07.413-.107.156-.042.312-.083.468-.128h0c.129-.036.26-.073.388-.113l.163-.049.266-.083c.078-.022.156-.048.232-.073.126-.041.252-.081.376-.125q.237-.079.471-.162c.15-.052.3-.108.448-.162.02-.007.041-.015.06-.024.142-.053.283-.106.424-.162s.309-.123.462-.187.308-.125.459-.191q.458-.2.91-.41.409-.19.813-.4.288-.146.574-.3c.108-.057.214-.115.323-.176.169-.091.339-.186.507-.282h0c.387-.218.768-.45,1.146-.688.114-.072.228-.146.34-.22Z"
              transform="translate(-947.109 -3698.768)" fill="#f1c310"/>
        <g transform="translate(750.089 770.929)">
            <path d="M1767.133,4121.947l-.105.07c-.112.073-.226.147-.34.218l-.281.176h0q-.428.265-.862.511v0c-.168.1-.338.191-.507.281-.108.061-.214.119-.322.176q-.286.153-.574.3-.4.206-.813.4c-.3.144-.605.279-.911.41-.151.066-.3.129-.459.192s-.307.125-.462.187-.282.108-.424.162c-.02.009-.041.016-.06.024-.149.054-.3.11-.448.162s-.313.109-.471.163c-.125.043-.25.083-.376.124-.077.026-.154.051-.232.074l-.266.083-.163.049c-.129.039-.26.076-.388.112h0c-.156.045-.312.087-.468.129-.136.036-.274.072-.412.106-.108.029-.218.055-.327.08l-.238.058q-.5.115-1.015.215c-.177.034-.354.069-.531.1s-.335.058-.5.083c-.048.01-.1.018-.147.025q-.167.026-.333.049c-.075.012-.151.022-.226.031-.111.017-.222.032-.333.044-.134.018-.27.034-.4.048s-.27.031-.405.043-.275.027-.413.037c-.1.009-.192.019-.288.024s-.205.015-.309.021c-.138.011-.275.018-.413.025-.165.009-.328.018-.493.023-.108,0-.214.007-.323.008s-.21.006-.315.007c-.168,0-.337,0-.505,0s-.345,0-.516,0c-.1,0-.2,0-.3-.007s-.18,0-.268-.006c-.167-.006-.335-.014-.5-.022l-.21-.012c-.133-.006-.265-.016-.4-.026s-.283-.02-.424-.034c-.12-.009-.241-.019-.363-.033-.075-.005-.148-.014-.223-.022-.1-.009-.2-.02-.3-.033-.045,0-.09-.009-.134-.015-.15-.016-.3-.035-.448-.055l-.021,0c-.165-.022-.33-.045-.5-.07s-.3-.047-.454-.073c-.062-.009-.123-.02-.186-.031-.121-.02-.244-.041-.366-.064-.166-.029-.333-.062-.5-.1s-.333-.069-.5-.106-.33-.072-.5-.112-.328-.079-.494-.122c-.125-.031-.248-.062-.37-.1s-.263-.068-.393-.108c-.1-.024-.2-.053-.292-.082-.158-.045-.313-.093-.468-.142-.095-.027-.191-.058-.284-.088s-.178-.057-.267-.087c-.066-.021-.132-.043-.2-.065-.1-.033-.2-.068-.3-.1l-.229-.081c-.082-.028-.165-.058-.246-.09s-.157-.057-.235-.087q-.14-.051-.279-.107c-.087-.033-.174-.065-.259-.1-.034-.016-.068-.029-.1-.042-.138-.056-.275-.11-.412-.169-.153-.064-.307-.131-.46-.2l-.044-.02c-.142-.062-.285-.127-.427-.192q-.7-.32-1.374-.675c-.151-.078-.3-.159-.451-.24s-.285-.158-.427-.237l-.028-.015-.42-.242-.015-.009q-.56-.329-1.108-.682l-.159-.1-.066-.043.568-1.326c.254.158.508.313.765.463l.015.009.42.242.028.015c.142.08.285.16.427.237s.3.162.451.24q.679.355,1.374.675l.427.191.044.02c.153.068.308.133.46.2.138.059.275.114.412.17l.1.042c.085.035.172.067.259.1s.186.074.279.108l.235.087c.081.031.164.061.246.09l.229.08c.1.037.2.071.3.1.064.022.131.044.2.065.088.031.177.059.267.087l.284.089c.154.047.31.1.468.14.1.029.195.057.292.082q.2.059.393.109c.123.035.246.066.37.1.165.042.328.082.494.121s.331.077.5.112.333.072.5.1.333.066.5.1c.122.023.245.045.366.065.063.012.125.022.186.031.151.025.3.05.454.072s.33.047.5.07l.021,0c.149.02.3.039.448.056.044.005.089.012.134.014.1.014.2.024.3.033.075.009.148.017.223.022.122.014.243.024.363.033.141.013.283.023.424.033s.266.02.4.025l.21.012c.166.009.334.017.5.022.088,0,.178,0,.268.005s.2.006.3.008c.171,0,.344,0,.516,0s.338,0,.505,0c.105,0,.21,0,.315-.008s.214,0,.323-.008c.165-.006.328-.013.493-.023.138-.007.275-.014.413-.025.1-.006.205-.012.309-.021s.192-.015.288-.023c.138-.011.275-.023.413-.038s.27-.027.405-.044.271-.029.4-.048c.111-.012.222-.027.333-.043.075-.009.151-.02.226-.031q.167-.021.333-.049l.147-.024c.168-.025.334-.055.5-.084s.354-.065.531-.1q.51-.1,1.015-.216l.238-.057c.109-.026.219-.052.327-.08.138-.034.276-.069.412-.106.156-.042.312-.084.468-.129h0c.129-.035.26-.074.388-.111l.163-.05c.089-.027.177-.054.266-.082s.156-.048.232-.074c.126-.041.252-.081.376-.125.157-.053.315-.106.471-.163s.3-.107.448-.161c.019-.008.04-.015.06-.024.142-.052.283-.106.424-.162s.309-.122.462-.186.307-.126.459-.191q.459-.2.911-.409c.273-.128.544-.26.813-.4q.288-.145.574-.3c.108-.057.215-.116.322-.176.17-.091.339-.187.507-.282h0q.434-.245.862-.512h0l.132-.082Z"
                  transform="translate(-1733.347 -4104.493)" fill="#fff"/>
            <path d="M1847.285,3094.379c-.084.05-.168.1-.252.146v0q-.252.144-.507.282c-.108.06-.214.118-.323.175-.19.1-.382.2-.574.3q-.4.2-.813.4-.452.214-.91.409c-.151.066-.3.129-.459.192s-.307.126-.462.186-.282.11-.424.162c-.02.009-.041.017-.06.024-.148.054-.3.109-.448.162s-.313.109-.471.162c-.125.043-.251.084-.377.125-.077.025-.155.051-.233.073s-.177.055-.265.083l-.164.049c-.129.039-.259.076-.388.113h0c-.156.045-.312.087-.468.129l-.413.106c-.108.029-.217.054-.327.08l-.239.057q-.5.117-1.015.216c-.177.035-.354.069-.531.1s-.334.059-.5.084c-.048.009-.1.017-.147.024q-.167.027-.333.05c-.075.012-.151.022-.226.031-.111.017-.222.032-.333.043-.133.018-.27.034-.4.048s-.27.032-.405.043-.274.027-.412.038c-.1.009-.192.018-.288.024s-.205.015-.309.021c-.138.01-.274.018-.413.025-.165.009-.328.016-.493.022-.108,0-.214.008-.322.009s-.21.006-.315.008c-.168,0-.338,0-.505,0s-.345,0-.516,0c-.1,0-.2,0-.3-.008l-.268-.006c-.166-.006-.334-.014-.5-.023-.07,0-.139-.008-.21-.012-.134-.006-.266-.015-.4-.025s-.284-.019-.425-.033c-.12-.009-.242-.019-.363-.033-.075-.006-.149-.013-.224-.022-.1-.009-.2-.02-.3-.033-.045,0-.09-.009-.133-.015-.15-.016-.3-.036-.449-.055l-.021,0c-.165-.022-.33-.045-.495-.071s-.3-.046-.454-.072c-.062-.009-.123-.02-.186-.032-.121-.019-.244-.042-.366-.065-.166-.03-.333-.063-.5-.1s-.333-.069-.5-.1-.33-.073-.5-.113-.328-.079-.493-.121c-.125-.032-.248-.063-.371-.1s-.262-.069-.393-.108c-.1-.025-.2-.054-.293-.083-.157-.045-.313-.093-.468-.141l-.283-.088-.267-.087-.2-.065c-.1-.034-.2-.068-.3-.1l-.23-.081c-.082-.028-.165-.059-.246-.09s-.157-.057-.235-.087-.186-.07-.279-.108-.174-.066-.259-.1l-.1-.042c-.138-.056-.275-.111-.413-.169s-.307-.131-.46-.2l-.043-.02c-.143-.063-.285-.127-.428-.192q-.7-.319-1.374-.675c-.152-.078-.3-.159-.452-.24s-.285-.157-.427-.237l-.029-.015-.42-.243-.015-.009-.052-.031,4.3-10.038h0l.33-.767h0l.635-1.476.688-1.6a79.276,79.276,0,0,1,18.885,0l.66,1.455.71,1.561h0l.345.76v0Z"
                  transform="translate(-1814.838 -3079.876)" fill="#fff"/>
        </g>
        <path d="M2551.235,3172.318c-.4,1.275-2.07,2.233-4.066,2.233-1.951,0-3.591-.916-4.037-2.152a44.485,44.485,0,0,1,4.509-.224C2548.854,3172.175,2550.055,3172.222,2551.235,3172.318Z"
              transform="translate(-1780.512 -2399.818)"/>
        <path d="M2551.235,3172.318c-.4,1.275-2.07,2.233-4.066,2.233-1.951,0-3.591-.916-4.037-2.152a44.485,44.485,0,0,1,4.509-.224C2548.854,3172.175,2550.055,3172.222,2551.235,3172.318Z"
              transform="translate(-1780.512 -2399.818)"/>
        <path d="M2561.713,734.829a4.084,4.084,0,0,1-2.885,2.481,4.288,4.288,0,0,1-1.029.123,4.212,4.212,0,0,1-.681-.054,4.117,4.117,0,0,1-3.188-2.442A32.931,32.931,0,0,1,2561.713,734.829Z"
              transform="translate(-1791.142 -0.012)"/>
        <path d="M1915.25,2219.184a40.871,40.871,0,0,1,13.348,2.112,13.982,13.982,0,0,0-13.183-16.075,13.967,13.967,0,0,0-14.4,16.4A40.112,40.112,0,0,1,1915.25,2219.184Z"
              transform="translate(-1148.121 -1447.813)" fill="red"/>
        <path d="M2010.7,2327.378a12.29,12.29,0,0,1,12.277-12.276c.185,0,.374,0,.56.012a12.312,12.312,0,0,1,11.693,11.5q.018.305.022.611a44.118,44.118,0,0,0-11.805-1.546,43.287,43.287,0,0,0-12.746,1.823C2010.7,2327.46,2010.7,2327.419,2010.7,2327.378Z"
              transform="translate(-1256.317 -1556.008)" fill="red"/>
        <path d="M1915.25,2219.184a40.871,40.871,0,0,1,13.348,2.112,13.982,13.982,0,0,0-13.183-16.075,13.967,13.967,0,0,0-14.4,16.4A40.112,40.112,0,0,1,1915.25,2219.184Z"
              transform="translate(-1148.121 -1447.813)"/>
        <path d="M2010.7,2327.378a12.29,12.29,0,0,1,12.277-12.276c.185,0,.374,0,.56.012a12.312,12.312,0,0,1,11.693,11.5q.018.305.022.611a44.118,44.118,0,0,0-11.805-1.546,43.287,43.287,0,0,0-12.746,1.823C2010.7,2327.46,2010.7,2327.419,2010.7,2327.378Z"
              transform="translate(-1256.317 -1556.008)"/>
        <path d="M2761.053,1539.46h0a.628.628,0,0,1,.675.567v5.866a.628.628,0,0,1-.675.567h0a.628.628,0,0,1-.675-.567v-5.866A.628.628,0,0,1,2761.053,1539.46Z"
              transform="translate(-1994.396 -792.368)"/>
        <path d="M2761.053,774.3h0c.372,0,.675.6.675,1.336V789.47c0,.738-.3,1.336-.675,1.336h0c-.373,0-.675-.6-.675-1.336V775.636C2760.378,774.9,2760.68,774.3,2761.053,774.3Z"
              transform="translate(-1994.396 -39.049)"/>
    </g>
</svg>
